<svg xmlns="http://www.w3.org/2000/svg" version="1.1" xmlns:xlink="http://www.w3.org/1999/xlink" xmlns:svgjs="http://svgjs.dev/svgjs" viewBox="0 0 10.655533191095824 8.634662702191315"><g transform="matrix(1,0,0,1,0.7984514100010376,6.595711292190277)"><g><path d=" M 0.28875 0.2639999999999999 Q 0.3165 0.30599999999999994 0.357 0.3374999999999999 Q 0.3975 0.369 0.4665 0.4139999999999999 Q 0.5415 0.46199999999999997 0.5865 0.49799999999999994 Q 0.6315000000000001 0.534 0.663 0.58575 Q 0.6945 0.6375 0.6945 0.705 Q 0.6945 0.7829999999999999 0.6525 0.84375 Q 0.6105 0.9045 0.53625 0.9382499999999999 Q 0.462 0.972 0.3705 0.972 Q 0.303 0.972 0.2295 0.9532499999999999 Q 0.156 0.9345 0.1305 0.9119999999999999 Q 0.123 0.9059999999999999 0.11925000000000001 0.9007499999999999 Q 0.1155 0.8955 0.1155 0.8835 L 0.111 0.645 L 0.111 0.6435 Q 0.111 0.6375 0.11850000000000001 0.6367499999999999 Q 0.126 0.6359999999999999 0.1275 0.6419999999999999 Q 0.17250000000000001 0.7334999999999999 0.20625000000000002 0.7905 Q 0.24 0.8474999999999999 0.29175 0.891 Q 0.3435 0.9345 0.40950000000000003 0.9345 Q 0.46950000000000003 0.9345 0.5085000000000001 0.90225 Q 0.5475 0.87 0.5475 0.7919999999999999 Q 0.5475 0.726 0.51825 0.6764999999999999 Q 0.489 0.627 0.447 0.5925 Q 0.405 0.5579999999999999 0.3315 0.51 Q 0.2595 0.46349999999999997 0.21975 0.4305 Q 0.18 0.39749999999999996 0.1515 0.351 Q 0.123 0.3045 0.123 0.24149999999999994 Q 0.123 0.16199999999999992 0.16875 0.10724999999999996 Q 0.2145 0.05249999999999999 0.28650000000000003 0.026249999999999885 Q 0.3585 -1.1102230246251565e-16 0.438 -1.1102230246251565e-16 Q 0.4905 -1.1102230246251565e-16 0.5445 0.009749999999999925 Q 0.5985 0.019499999999999962 0.6315000000000001 0.03299999999999992 Q 0.645 0.038999999999999924 0.6495 0.04574999999999996 Q 0.654 0.05249999999999999 0.654 0.06299999999999994 L 0.654 0.2835 Q 0.654 0.2879999999999999 0.6465 0.2902499999999999 Q 0.639 0.2925 0.6375000000000001 0.2879999999999999 L 0.6255000000000001 0.25949999999999995 Q 0.588 0.16499999999999992 0.5377500000000001 0.09899999999999998 Q 0.4875 0.03299999999999992 0.3975 0.03299999999999992 Q 0.3375 0.03299999999999992 0.29925 0.0674999999999999 Q 0.261 0.10199999999999998 0.261 0.16799999999999993 Q 0.261 0.22199999999999998 0.28875 0.2639999999999999 M 1.32902197265625 0.867 Q 1.33502197265625 0.867 1.33727197265625 0.873 Q 1.3395219726562502 0.879 1.33502197265625 0.8819999999999999 Q 1.27352197265625 0.9315 1.22477197265625 0.95175 Q 1.17602197265625 0.972 1.1160219726562501 0.972 Q 1.02602197265625 0.972 0.96452197265625 0.9239999999999999 Q 0.9030219726562501 0.876 0.9030219726562501 0.7649999999999999 L 0.9030219726562501 0.372 Q 0.9030219726562501 0.3314999999999999 0.8857719726562501 0.31799999999999995 Q 0.86852197265625 0.3045 0.82202197265625 0.3045 Q 0.81752197265625 0.3045 0.81752197265625 0.2909999999999999 Q 0.81752197265625 0.27749999999999997 0.82202197265625 0.27749999999999997 Q 0.89852197265625 0.27749999999999997 0.95552197265625 0.24449999999999994 Q 1.01252197265625 0.2114999999999999 1.02902197265625 0.15749999999999997 Q 1.03202197265625 0.1529999999999999 1.03802197265625 0.1529999999999999 Q 1.04402197265625 0.1529999999999999 1.04852197265625 0.1552499999999999 Q 1.05302197265625 0.15749999999999997 1.05302197265625 0.16049999999999998 L 1.05302197265625 0.2699999999999999 Q 1.15652197265625 0.26849999999999996 1.29452197265625 0.25649999999999995 Q 1.29902197265625 0.25649999999999995 1.30202197265625 0.2669999999999999 Q 1.30502197265625 0.27749999999999997 1.30502197265625 0.2925 Q 1.30502197265625 0.3075 1.29977197265625 0.32175 Q 1.29452197265625 0.33599999999999997 1.29002197265625 0.3344999999999999 Q 1.21952197265625 0.3164999999999999 1.05302197265625 0.3105 L 1.05302197265625 0.7304999999999999 Q 1.05302197265625 0.9089999999999999 1.18502197265625 0.9089999999999999 Q 1.26602197265625 0.9089999999999999 1.32602197265625 0.8684999999999999 L 1.32902197265625 0.867 M 1.5945292968750002 0.92175 Q 1.5105292968750001 0.8714999999999999 1.4640292968750002 0.78675 Q 1.4175292968750002 0.702 1.4175292968750002 0.603 Q 1.4175292968750002 0.48899999999999993 1.4767792968750002 0.4049999999999999 Q 1.5360292968750002 0.32099999999999995 1.6282792968750002 0.27749999999999997 Q 1.7205292968750003 0.23399999999999999 1.8180292968750003 0.23399999999999999 Q 1.9245292968750003 0.23399999999999999 2.0062792968750003 0.28574999999999995 Q 2.0880292968750003 0.3374999999999999 2.133029296875 0.42074999999999996 Q 2.178029296875 0.504 2.178029296875 0.5954999999999999 Q 2.178029296875 0.696 2.1255292968750004 0.7822499999999999 Q 2.073029296875 0.8684999999999999 1.9830292968750003 0.92025 Q 1.8930292968750002 0.972 1.7850292968750003 0.972 Q 1.6785292968750003 0.972 1.5945292968750002 0.92175 M 1.9552792968750001 0.855 Q 2.0070292968750003 0.7725 2.0070292968750003 0.627 Q 2.0070292968750003 0.528 1.9770292968750003 0.44699999999999995 Q 1.9470292968750003 0.366 1.8922792968750004 0.31875 Q 1.8375292968750003 0.27149999999999996 1.7655292968750003 0.27149999999999996 Q 1.6785292968750003 0.27149999999999996 1.6335292968750004 0.3434999999999999 Q 1.5885292968750002 0.4155 1.5885292968750002 0.5565 Q 1.5885292968750002 0.663 1.6192792968750003 0.7507499999999999 Q 1.6500292968750003 0.8384999999999999 1.7025292968750003 0.8879999999999999 Q 1.7550292968750003 0.9375 1.8195292968750003 0.9375 Q 1.9035292968750004 0.9375 1.9552792968750001 0.855 M 3.08705419921875 0.945 Q 3.08705419921875 0.954 3.0840541992187505 0.954 Q 3.0465541992187504 0.954 3.0255541992187505 0.9525 L 2.94755419921875 0.951 L 2.8575541992187503 0.9525 Q 2.8350541992187503 0.954 2.7975541992187503 0.954 Q 2.7945541992187506 0.954 2.7945541992187506 0.945 Q 2.7945541992187506 0.9359999999999999 2.7975541992187503 0.9359999999999999 Q 2.8320541992187502 0.9359999999999999 2.8485541992187504 0.9269999999999999 Q 2.8650541992187506 0.9179999999999999 2.8710541992187504 0.89625 Q 2.87705419921875 0.8744999999999999 2.87705419921875 0.8294999999999999 L 2.87705419921875 0.5309999999999999 Q 2.87705419921875 0.3899999999999999 2.8358041992187504 0.33675 Q 2.7945541992187506 0.2835 2.7225541992187505 0.2835 Q 2.6625541992187505 0.2835 2.6108041992187503 0.3135 Q 2.5590541992187505 0.3434999999999999 2.5140541992187506 0.4109999999999999 L 2.5140541992187506 0.8294999999999999 Q 2.5140541992187506 0.8744999999999999 2.5193041992187504 0.89625 Q 2.5245541992187506 0.9179999999999999 2.5403041992187503 0.9269999999999999 Q 2.5560541992187504 0.9359999999999999 2.5890541992187504 0.9359999999999999 Q 2.5920541992187505 0.9359999999999999 2.5920541992187505 0.945 Q 2.5920541992187505 0.954 2.5890541992187504 0.954 Q 2.5455541992187505 0.954 2.5200541992187504 0.9525 L 2.43305419921875 0.951 L 2.35055419921875 0.9525 Q 2.32655419921875 0.954 2.2830541992187503 0.954 Q 2.28005419921875 0.954 2.28005419921875 0.945 Q 2.28005419921875 0.9359999999999999 2.2830541992187503 0.9359999999999999 Q 2.3175541992187503 0.9359999999999999 2.3348041992187505 0.9285 Q 2.3520541992187503 0.9209999999999999 2.3580541992187505 0.89925 Q 2.3640541992187503 0.8775 2.3640541992187503 0.8325 L 2.3640541992187503 0.37349999999999994 Q 2.3640541992187503 0.3284999999999999 2.3580541992187505 0.3075 Q 2.3520541992187503 0.2865 2.3363041992187505 0.27825 Q 2.3205541992187504 0.2699999999999999 2.2875541992187505 0.2699999999999999 Q 2.2830541992187503 0.2699999999999999 2.2830541992187503 0.2609999999999999 Q 2.2830541992187503 0.2519999999999999 2.2875541992187505 0.2519999999999999 L 2.38505419921875 0.25349999999999995 L 2.4855541992187504 0.2519999999999999 Q 2.50355419921875 0.2519999999999999 2.5088041992187504 0.25725 Q 2.5140541992187506 0.26249999999999996 2.5140541992187506 0.28049999999999997 L 2.5140541992187506 0.363 Q 2.5710541992187506 0.29699999999999993 2.6370541992187504 0.26549999999999996 Q 2.7030541992187502 0.23399999999999999 2.78255419921875 0.23399999999999999 Q 2.8875541992187506 0.23399999999999999 2.9565541992187505 0.2932499999999999 Q 3.0255541992187505 0.3524999999999999 3.0255541992187505 0.49649999999999994 L 3.0255541992187505 0.8325 Q 3.0255541992187505 0.8775 3.0300541992187506 0.89925 Q 3.0345541992187504 0.9209999999999999 3.0465541992187504 0.9285 Q 3.0585541992187504 0.9359999999999999 3.0840541992187505 0.9359999999999999 Q 3.08705419921875 0.9359999999999999 3.08705419921875 0.945 M 3.9975805664062505 0.945 Q 3.9975805664062505 0.954 3.9930805664062508 0.954 L 3.7935805664062503 0.954 Q 3.7845805664062504 0.954 3.7605805664062504 0.95475 Q 3.7365805664062504 0.9554999999999999 3.6848305664062506 0.88125 Q 3.6330805664062504 0.8069999999999999 3.5805805664062507 0.7364999999999999 L 3.4755805664062507 0.5954999999999999 L 3.4350805664062505 0.6359999999999999 L 3.4350805664062505 0.8325 Q 3.4350805664062505 0.8775 3.4425805664062503 0.8985 Q 3.4500805664062506 0.9195 3.4703305664062505 0.92775 Q 3.4905805664062504 0.9359999999999999 3.5325805664062506 0.9359999999999999 Q 3.5355805664062503 0.9359999999999999 3.5355805664062503 0.945 Q 3.5355805664062503 0.954 3.5325805664062506 0.954 Q 3.4860805664062506 0.954 3.4605805664062506 0.9525 L 3.3600805664062503 0.951 L 3.2625805664062506 0.9525 Q 3.2355805664062505 0.954 3.1875805664062504 0.954 Q 3.1845805664062503 0.954 3.1845805664062503 0.945 Q 3.1845805664062503 0.9359999999999999 3.1875805664062504 0.9359999999999999 Q 3.2310805664062503 0.9359999999999999 3.2513305664062506 0.9285 Q 3.2715805664062505 0.9209999999999999 3.2790805664062503 0.89925 Q 3.2865805664062506 0.8775 3.2865805664062506 0.8325 L 3.2865805664062506 0.37349999999999994 Q 3.2865805664062506 0.3284999999999999 3.2790805664062503 0.3075 Q 3.2715805664062505 0.2865 3.2513305664062506 0.27825 Q 3.2310805664062503 0.2699999999999999 3.1905805664062505 0.2699999999999999 Q 3.1860805664062504 0.2699999999999999 3.1860805664062504 0.2609999999999999 Q 3.1860805664062504 0.2519999999999999 3.1905805664062505 0.2519999999999999 L 3.2625805664062506 0.25349999999999995 Q 3.3225805664062507 0.25649999999999995 3.3600805664062503 0.25649999999999995 Q 3.4005805664062505 0.25649999999999995 3.4605805664062506 0.25349999999999995 L 3.5325805664062506 0.2519999999999999 Q 3.5355805664062503 0.2519999999999999 3.5355805664062503 0.2609999999999999 Q 3.5355805664062503 0.2699999999999999 3.5325805664062506 0.2699999999999999 Q 3.4725805664062506 0.2699999999999999 3.4538305664062507 0.2909999999999999 Q 3.4350805664062505 0.31199999999999994 3.4350805664062505 0.37649999999999995 L 3.4350805664062505 0.576 L 3.6165805664062507 0.3959999999999999 Q 3.6795805664062504 0.33299999999999996 3.6795805664062504 0.2985 Q 3.6795805664062504 0.2699999999999999 3.6330805664062504 0.2699999999999999 Q 3.6300805664062503 0.2699999999999999 3.6300805664062503 0.2609999999999999 Q 3.6300805664062503 0.2519999999999999 3.6330805664062504 0.2519999999999999 L 3.6960805664062506 0.25349999999999995 Q 3.7530805664062505 0.25649999999999995 3.8025805664062506 0.25649999999999995 Q 3.8670805664062504 0.25649999999999995 3.9180805664062506 0.25349999999999995 Q 3.9330805664062503 0.2519999999999999 3.9525805664062506 0.2519999999999999 Q 3.9570805664062503 0.2519999999999999 3.9570805664062503 0.2609999999999999 Q 3.9570805664062503 0.2699999999999999 3.9525805664062506 0.2699999999999999 Q 3.8940805664062506 0.2699999999999999 3.8040805664062507 0.3135 Q 3.7140805664062504 0.357 3.6510805664062507 0.41999999999999993 L 3.5805805664062507 0.49049999999999994 L 3.7080805664062506 0.657 Q 3.8025805664062506 0.7829999999999999 3.8513305664062507 0.84 Q 3.900080566406251 0.8969999999999999 3.9300805664062506 0.9165 Q 3.9600805664062504 0.9359999999999999 3.9930805664062508 0.9359999999999999 Q 3.9975805664062505 0.9359999999999999 3.9975805664062505 0.945 M 4.176089355468751 0.92175 Q 4.092089355468751 0.8714999999999999 4.045589355468751 0.78675 Q 3.9990893554687506 0.702 3.9990893554687506 0.603 Q 3.9990893554687506 0.48899999999999993 4.058339355468751 0.4049999999999999 Q 4.117589355468751 0.32099999999999995 4.209839355468751 0.27749999999999997 Q 4.302089355468751 0.23399999999999999 4.39958935546875 0.23399999999999999 Q 4.506089355468751 0.23399999999999999 4.58783935546875 0.28574999999999995 Q 4.669589355468751 0.3374999999999999 4.714589355468751 0.42074999999999996 Q 4.7595893554687505 0.504 4.7595893554687505 0.5954999999999999 Q 4.7595893554687505 0.696 4.70708935546875 0.7822499999999999 Q 4.654589355468751 0.8684999999999999 4.564589355468751 0.92025 Q 4.47458935546875 0.972 4.366589355468751 0.972 Q 4.26008935546875 0.972 4.176089355468751 0.92175 M 4.536839355468751 0.855 Q 4.58858935546875 0.7725 4.58858935546875 0.627 Q 4.58858935546875 0.528 4.558589355468751 0.44699999999999995 Q 4.528589355468751 0.366 4.47383935546875 0.31875 Q 4.419089355468751 0.27149999999999996 4.347089355468751 0.27149999999999996 Q 4.26008935546875 0.27149999999999996 4.21508935546875 0.3434999999999999 Q 4.17008935546875 0.4155 4.17008935546875 0.5565 Q 4.17008935546875 0.663 4.200839355468751 0.7507499999999999 Q 4.231589355468751 0.8384999999999999 4.28408935546875 0.8879999999999999 Q 4.3365893554687505 0.9375 4.40108935546875 0.9375 Q 4.485089355468751 0.9375 4.536839355468751 0.855 M 6.156114257812501 0.945 Q 6.156114257812501 0.954 6.153114257812501 0.954 Q 6.109614257812501 0.954 6.084114257812501 0.9525 L 5.980614257812501 0.951 L 5.881614257812501 0.9525 Q 5.856114257812501 0.954 5.812614257812501 0.954 Q 5.808114257812501 0.954 5.808114257812501 0.945 Q 5.808114257812501 0.9359999999999999 5.812614257812501 0.9359999999999999 Q 5.854614257812501 0.9359999999999999 5.874114257812501 0.9285 Q 5.893614257812501 0.9209999999999999 5.901114257812501 0.89925 Q 5.9086142578125 0.8775 5.9086142578125 0.8325 L 5.9086142578125 0.5115 Q 5.9086142578125 0.3989999999999999 5.877114257812501 0.34199999999999997 Q 5.8456142578125005 0.2849999999999999 5.778114257812501 0.2849999999999999 Q 5.7226142578125 0.2849999999999999 5.672364257812501 0.31799999999999995 Q 5.622114257812501 0.351 5.5816142578125 0.4109999999999999 Q 5.5861142578125005 0.43799999999999994 5.5861142578125005 0.46649999999999997 L 5.5861142578125005 0.8325 Q 5.5861142578125005 0.8775 5.592864257812501 0.89925 Q 5.599614257812501 0.9209999999999999 5.619864257812501 0.9285 Q 5.640114257812501 0.9359999999999999 5.682114257812501 0.9359999999999999 Q 5.686614257812501 0.9359999999999999 5.686614257812501 0.945 Q 5.686614257812501 0.954 5.682114257812501 0.954 Q 5.638614257812501 0.954 5.613114257812501 0.9525 L 5.511114257812501 0.951 L 5.412114257812501 0.9525 Q 5.386614257812501 0.954 5.343114257812501 0.954 Q 5.338614257812501 0.954 5.338614257812501 0.945 Q 5.338614257812501 0.9359999999999999 5.343114257812501 0.9359999999999999 Q 5.385114257812501 0.9359999999999999 5.404614257812501 0.92775 Q 5.424114257812501 0.9195 5.431614257812501 0.8985 Q 5.439114257812501 0.8775 5.439114257812501 0.8325 L 5.439114257812501 0.5115 Q 5.439114257812501 0.40049999999999997 5.406114257812501 0.34199999999999997 Q 5.3731142578125 0.2835 5.307114257812501 0.2835 Q 5.197614257812501 0.2835 5.1121142578125 0.4109999999999999 L 5.1121142578125 0.8325 Q 5.1121142578125 0.8775 5.119614257812501 0.89925 Q 5.127114257812501 0.9209999999999999 5.146614257812501 0.9285 Q 5.1661142578125006 0.9359999999999999 5.2096142578125 0.9359999999999999 Q 5.2126142578125005 0.9359999999999999 5.2126142578125005 0.945 Q 5.2126142578125005 0.954 5.2096142578125 0.954 Q 5.1661142578125006 0.954 5.1406142578125005 0.9525 L 5.037114257812501 0.951 L 4.938114257812501 0.9525 Q 4.912614257812501 0.954 4.869114257812501 0.954 Q 4.864614257812501 0.954 4.864614257812501 0.945 Q 4.864614257812501 0.9359999999999999 4.869114257812501 0.9359999999999999 Q 4.911114257812501 0.9359999999999999 4.9306142578125005 0.9285 Q 4.9501142578125 0.9209999999999999 4.956864257812501 0.89925 Q 4.963614257812501 0.8775 4.963614257812501 0.8325 L 4.963614257812501 0.37349999999999994 Q 4.963614257812501 0.3284999999999999 4.956864257812501 0.3075 Q 4.9501142578125 0.2865 4.9291142578125005 0.27825 Q 4.9081142578125005 0.2699999999999999 4.864614257812501 0.2699999999999999 Q 4.861614257812501 0.2699999999999999 4.861614257812501 0.2609999999999999 Q 4.861614257812501 0.2519999999999999 4.864614257812501 0.2519999999999999 L 5.016114257812501 0.25349999999999995 L 5.085114257812501 0.2519999999999999 Q 5.103114257812501 0.2519999999999999 5.107614257812501 0.25725 Q 5.1121142578125 0.26249999999999996 5.1121142578125 0.28049999999999997 L 5.1121142578125 0.36149999999999993 Q 5.217114257812501 0.23249999999999993 5.364114257812501 0.23249999999999993 Q 5.4466142578125005 0.23249999999999993 5.499114257812501 0.26925 Q 5.551614257812501 0.30599999999999994 5.572614257812501 0.372 Q 5.682114257812501 0.23249999999999993 5.833614257812501 0.23249999999999993 Q 5.941614257812501 0.23249999999999993 5.999364257812501 0.29474999999999996 Q 6.057114257812501 0.357 6.057114257812501 0.46649999999999997 L 6.057114257812501 0.8325 Q 6.057114257812501 0.8775 6.063864257812501 0.89925 Q 6.070614257812501 0.9209999999999999 6.090864257812501 0.9285 Q 6.111114257812501 0.9359999999999999 6.153114257812501 0.9359999999999999 Q 6.156114257812501 0.9359999999999999 6.156114257812501 0.945 M 6.415658935546875 0.5505 Q 6.415658935546875 0.717 6.489158935546875 0.816 Q 6.562658935546875 0.9149999999999999 6.696158935546875 0.9149999999999999 Q 6.733658935546876 0.9149999999999999 6.772658935546875 0.9045 Q 6.811658935546875 0.8939999999999999 6.841658935546875 0.873 L 6.843158935546875 0.873 Q 6.8476589355468755 0.873 6.851408935546876 0.87825 Q 6.855158935546875 0.8835 6.852158935546876 0.8879999999999999 Q 6.747158935546875 0.972 6.621158935546876 0.972 Q 6.504158935546876 0.972 6.422408935546875 0.92175 Q 6.340658935546875 0.8714999999999999 6.298658935546875 0.7905 Q 6.256658935546875 0.7095 6.256658935546875 0.615 Q 6.256658935546875 0.5115 6.3076589355468755 0.4252499999999999 Q 6.358658935546876 0.33899999999999997 6.445658935546875 0.28874999999999995 Q 6.532658935546875 0.23849999999999993 6.6346589355468755 0.23849999999999993 Q 6.745658935546875 0.23849999999999993 6.804158935546876 0.29699999999999993 Q 6.862658935546875 0.3554999999999999 6.862658935546875 0.44999999999999996 Q 6.862658935546875 0.4695 6.858908935546875 0.4769999999999999 Q 6.855158935546875 0.48449999999999993 6.844658935546875 0.48449999999999993 L 6.418658935546875 0.48599999999999993 Q 6.415658935546875 0.5249999999999999 6.415658935546875 0.5505 M 6.479408935546876 0.3224999999999999 Q 6.438158935546875 0.37049999999999994 6.4231589355468754 0.45599999999999996 L 6.702158935546875 0.4514999999999999 Q 6.699158935546875 0.27449999999999997 6.583658935546875 0.27449999999999997 Q 6.520658935546876 0.27449999999999997 6.479408935546876 0.3224999999999999 M 7.447663330078126 0.867 Q 7.453663330078126 0.867 7.4559133300781255 0.873 Q 7.458163330078126 0.879 7.453663330078126 0.8819999999999999 Q 7.392163330078126 0.9315 7.343413330078126 0.95175 Q 7.294663330078126 0.972 7.234663330078126 0.972 Q 7.144663330078126 0.972 7.083163330078126 0.9239999999999999 Q 7.021663330078126 0.876 7.021663330078126 0.7649999999999999 L 7.021663330078126 0.372 Q 7.021663330078126 0.3314999999999999 7.004413330078126 0.31799999999999995 Q 6.987163330078126 0.3045 6.940663330078126 0.3045 Q 6.936163330078126 0.3045 6.936163330078126 0.2909999999999999 Q 6.936163330078126 0.27749999999999997 6.940663330078126 0.27749999999999997 Q 7.017163330078126 0.27749999999999997 7.074163330078126 0.24449999999999994 Q 7.131163330078126 0.2114999999999999 7.147663330078126 0.15749999999999997 Q 7.150663330078126 0.1529999999999999 7.156663330078126 0.1529999999999999 Q 7.162663330078126 0.1529999999999999 7.167163330078126 0.1552499999999999 Q 7.171663330078126 0.15749999999999997 7.171663330078126 0.16049999999999998 L 7.171663330078126 0.2699999999999999 Q 7.275163330078126 0.26849999999999996 7.413163330078126 0.25649999999999995 Q 7.417663330078126 0.25649999999999995 7.420663330078126 0.2669999999999999 Q 7.423663330078126 0.27749999999999997 7.423663330078126 0.2925 Q 7.423663330078126 0.3075 7.418413330078126 0.32175 Q 7.413163330078126 0.33599999999999997 7.408663330078126 0.3344999999999999 Q 7.338163330078126 0.3164999999999999 7.171663330078126 0.3105 L 7.171663330078126 0.7304999999999999 Q 7.171663330078126 0.9089999999999999 7.303663330078126 0.9089999999999999 Q 7.384663330078126 0.9089999999999999 7.444663330078126 0.8684999999999999 L 7.447663330078126 0.867 M 8.344670654296877 0.945 Q 8.344670654296877 0.954 8.340170654296877 0.954 L 8.094170654296876 0.954 Q 8.071670654296877 0.954 8.013920654296877 0.864 Q 7.956170654296876 0.774 7.876670654296877 0.6164999999999999 Q 7.845170654296877 0.621 7.813670654296876 0.621 L 7.788170654296876 0.621 L 7.788170654296876 0.8325 Q 7.788170654296876 0.879 7.7949206542968765 0.8999999999999999 Q 7.801670654296877 0.9209999999999999 7.820420654296877 0.9285 Q 7.839170654296876 0.9359999999999999 7.881170654296876 0.9359999999999999 Q 7.884170654296876 0.9359999999999999 7.884170654296876 0.945 Q 7.884170654296876 0.954 7.881170654296876 0.954 Q 7.836170654296876 0.954 7.810670654296876 0.9525 L 7.708670654296877 0.951 L 7.611170654296877 0.9525 Q 7.5841706542968765 0.954 7.5361706542968765 0.954 Q 7.533170654296876 0.954 7.533170654296876 0.945 Q 7.533170654296876 0.9359999999999999 7.5361706542968765 0.9359999999999999 Q 7.578170654296876 0.9359999999999999 7.597670654296876 0.9285 Q 7.617170654296877 0.9209999999999999 7.624670654296876 0.89925 Q 7.632170654296877 0.8775 7.632170654296877 0.8325 L 7.632170654296877 0.37349999999999994 Q 7.632170654296877 0.3284999999999999 7.625420654296876 0.3075 Q 7.618670654296877 0.2865 7.599170654296876 0.27825 Q 7.579670654296876 0.2699999999999999 7.539170654296877 0.2699999999999999 Q 7.534670654296876 0.2699999999999999 7.534670654296876 0.2609999999999999 Q 7.534670654296876 0.2519999999999999 7.539170654296877 0.2519999999999999 L 7.612670654296877 0.25349999999999995 Q 7.672670654296876 0.25649999999999995 7.708670654296877 0.25649999999999995 Q 7.737170654296877 0.25649999999999995 7.761170654296876 0.2549999999999999 Q 7.785170654296876 0.25349999999999995 7.803170654296877 0.2519999999999999 Q 7.852670654296877 0.24749999999999994 7.896170654296877 0.24749999999999994 Q 8.013170654296877 0.24749999999999994 8.074670654296877 0.2849999999999999 Q 8.136170654296876 0.3224999999999999 8.136170654296876 0.3929999999999999 Q 8.136170654296876 0.4514999999999999 8.098670654296876 0.5009999999999999 Q 8.061170654296877 0.5505 7.995170654296876 0.582 Q 8.076170654296877 0.7184999999999999 8.134670654296876 0.7949999999999999 Q 8.193170654296877 0.8714999999999999 8.241170654296877 0.9037499999999999 Q 8.289170654296877 0.9359999999999999 8.340170654296877 0.9359999999999999 Q 8.344670654296877 0.9359999999999999 8.344670654296877 0.945 M 7.824170654296877 0.5925 Q 7.909670654296876 0.5925 7.942670654296877 0.55275 Q 7.975670654296876 0.5129999999999999 7.975670654296876 0.4335 Q 7.975670654296876 0.27749999999999997 7.861670654296876 0.27749999999999997 Q 7.830170654296877 0.27749999999999997 7.815170654296876 0.2849999999999999 Q 7.800170654296877 0.2925 7.7941706542968765 0.31275 Q 7.788170654296876 0.33299999999999996 7.788170654296876 0.37649999999999995 L 7.788170654296876 0.591 Q 7.798670654296877 0.5925 7.824170654296877 0.5925 M 9.069150878906251 0.2609999999999999 Q 9.069150878906251 0.2699999999999999 9.066150878906253 0.2699999999999999 Q 9.021150878906251 0.2699999999999999 8.984400878906252 0.30599999999999994 Q 8.947650878906252 0.34199999999999997 8.926650878906251 0.4049999999999999 L 8.715150878906252 0.9525 Q 8.679150878906253 1.0514999999999999 8.625150878906252 1.128 Q 8.571150878906252 1.2045 8.512650878906252 1.2345 Q 8.503650878906251 1.2405 8.481900878906252 1.22325 Q 8.460150878906251 1.206 8.446650878906253 1.1804999999999999 Q 8.431650878906252 1.146 8.431650878906252 1.1175 Q 8.431650878906252 1.092 8.443650878906253 1.089 Q 8.527650878906252 1.077 8.586900878906253 1.04625 Q 8.646150878906251 1.0154999999999998 8.680650878906253 0.951 L 8.404650878906253 0.37649999999999995 Q 8.374650878906252 0.3135 8.352150878906253 0.29174999999999995 Q 8.329650878906252 0.2699999999999999 8.290650878906252 0.2699999999999999 Q 8.286150878906252 0.2699999999999999 8.286150878906252 0.2609999999999999 Q 8.286150878906252 0.2519999999999999 8.290650878906252 0.2519999999999999 L 8.356650878906253 0.25349999999999995 Q 8.413650878906251 0.25649999999999995 8.466150878906252 0.25649999999999995 Q 8.503650878906251 0.25649999999999995 8.560650878906252 0.25349999999999995 L 8.626650878906252 0.2519999999999999 Q 8.631150878906253 0.2519999999999999 8.631150878906253 0.2609999999999999 Q 8.631150878906253 0.2699999999999999 8.626650878906252 0.2699999999999999 Q 8.548650878906253 0.2699999999999999 8.548650878906253 0.31499999999999995 Q 8.548650878906253 0.3344999999999999 8.562150878906252 0.36149999999999993 L 8.754150878906252 0.7515 L 8.886150878906252 0.3959999999999999 Q 8.898150878906252 0.363 8.898150878906252 0.33899999999999997 Q 8.898150878906252 0.2699999999999999 8.805150878906252 0.2699999999999999 Q 8.800650878906252 0.2699999999999999 8.800650878906252 0.2609999999999999 Q 8.800650878906252 0.2519999999999999 8.805150878906252 0.2519999999999999 L 8.857650878906252 0.25349999999999995 Q 8.905650878906252 0.25649999999999995 8.952150878906252 0.25649999999999995 Q 8.977650878906251 0.25649999999999995 9.010650878906253 0.25349999999999995 L 9.066150878906253 0.2519999999999999 Q 9.069150878906251 0.2519999999999999 9.069150878906251 0.2609999999999999" fill="#ffffff" fill-rule="nonzero"></path></g><g></g><g clip-path="url(#SvgjsClipPath1001)"><g clip-path="url(#SvgjsClipPath1000d3b4def5-1aad-4fd1-8ae1-b836175a6a1d)"><path d=" M 4.8041008586368665 -0.24999999999998757 L 6.390434884755604 -2.997435279924297 L 6.405565507221829 -3.0235933052048565 L 4.804247402195877 -5.797259882189222 L 1.6015012844747283 -5.797259882189222 L 0.015167258355991609 -3.049787966375164 L 0.00003663588978430311 -3.0235933052048383 L 1.6013913768054846 -0.2499999999999698 Z M 0.4577288065202731 -2.4401667609568154 L 2.5432268304650596 -0.3546687370120285 L 1.66180395900107 -0.3546687370120285 Z M 4.6466031686072 -5.283294984904713 L 4.782558955464633 -5.625144472149854 L 5.013365060881435 -5.225190463763282 Z M 5.034503969266461 -5.115832332863419 L 5.545171636473585 -1.8915443119700184 L 2.72629637153932 -0.45541743382097266 L 4.606926500009358 -5.1837186365677566 Z M 4.540615539564216 -5.300074222409631 L 2.0625639569621144 -5.6925545092874685 L 4.696684429893679 -5.6925545092874685 Z M 4.500938870966375 -5.200351330513664 L 2.6071198221867857 -0.4388213757647952 L 0.32814766447911903 -2.71783016936221 L 1.8102159483730416 -5.626500000070526 Z M 4.743651640551516 -0.3546687370120285 L 2.759488487651639 -0.3546687370120285 L 5.570560308069421 -1.787132026186213 Z M 5.646836230526208 -1.9190212292815385 L 5.164634649653833 -4.96328048794979 L 6.284520527492116 -3.023556669315109 Z M 1.66180395900107 -5.6925178733976844 L 1.7263563967382767 -5.6925178733976844 L 0.2513222036760953 -2.797623137234867 L 0.12089843617072149 -3.023556669315109 Z" fill="#64c6c4" transform="matrix(1,0,0,1,0,0)" fill-rule="nonzero"></path></g></g></g><defs><clipPath id="SvgjsClipPath1001"><path d=" M 0 -5.797259882189239 h 6.405418963662801 v 5.547259882189239 h -6.405418963662801 Z"></path></clipPath><clipPath id="SvgjsClipPath1000d3b4def5-1aad-4fd1-8ae1-b836175a6a1d"><path d=" M 0 -5.797259882189239 L 6.405418963662801 -5.797259882189239 L 6.405418963662801 -0.25 L 0 -0.25 Z"></path></clipPath></defs></svg>